<svg width="160" height="160" viewBox="0 0 160 160" xmlns="http://www.w3.org/2000/svg" role="img" aria-labelledby="chatbotTitle chatbotDesc">
  <title id="chatbotTitle">Riskalia Chatbot Badge</title>
  <desc id="chatbotDesc">Circular turquoise badge with a smiling assistant inside a chat bubble.</desc>
  <defs>
    <linearGradient id="mascotGradient" x1="0%" y1="0%" x2="100%" y2="100%">
      <stop offset="0%" stop-color="#00c0d9" />
      <stop offset="100%" stop-color="#00849b" />
    </linearGradient>
    <linearGradient id="bubbleGradient" x1="0%" y1="0%" x2="0%" y2="100%">
      <stop offset="0%" stop-color="#ffffff" />
      <stop offset="100%" stop-color="#f3fbff" />
    </linearGradient>
    <filter id="dropShadow" x="-20%" y="-20%" width="140%" height="140%">
      <feOffset dx="0" dy="4" in="SourceAlpha" result="shadowOffset" />
      <feGaussianBlur in="shadowOffset" stdDeviation="6" result="shadowBlur" />
      <feColorMatrix in="shadowBlur" type="matrix" values="0 0 0 0 0   0 0 0 0 0.38   0 0 0 0 0.45   0 0 0 0.25 0" result="shadow" />
      <feMerge>
        <feMergeNode in="shadow" />
        <feMergeNode in="SourceGraphic" />
      </feMerge>
    </filter>
  </defs>
  <g filter="url(#dropShadow)">
    <circle cx="80" cy="80" r="72" fill="url(#mascotGradient)" />
    <circle cx="80" cy="80" r="62" fill="rgba(255,255,255,0.12)" />
    <circle cx="80" cy="80" r="52" fill="url(#bubbleGradient)" stroke="rgba(0,132,155,0.25)" stroke-width="4" />
    <path d="M80 44c-19.33 0-34 12.27-34 29.2 0 10.1 5.54 18.6 14.04 23.6l-3.62 11.46a3 3 0 0 0 4.26 3.55l14.72-6.52a46.8 46.8 0 0 0 4.6 0.24c19.33 0 34-12.28 34-29.33C113 56.27 99.33 44 80 44z" fill="#ffffff" stroke="rgba(0,132,155,0.35)" stroke-width="4" stroke-linejoin="round" />
    <path d="M64 74a6 6 0 1 1 0-12 6 6 0 0 1 0 12zm32 0a6 6 0 1 1 0-12 6 6 0 0 1 0 12z" fill="#0c3b47" />
    <path d="M64 90c4.5 4.5 27.5 4.5 32 0" fill="none" stroke="#00b0c8" stroke-width="5" stroke-linecap="round" />
    <circle cx="60" cy="60" r="4" fill="#00b0c8" />
    <circle cx="100" cy="60" r="4" fill="#00b0c8" />
    <path d="M80 32c7 0 12-4.5 12-10s-5-10-12-10-12 4.5-12 10 5 10 12 10z" fill="#00b0c8" opacity="0.8" />
    <circle cx="80" cy="18" r="6" fill="#ffffff" opacity="0.95" />
  </g>
</svg>
