<svg width="128" height="128" viewBox="0 0 128 128" xmlns="http://www.w3.org/2000/svg" role="img" aria-labelledby="title desc">
  <title id="title">Riskalia Chatbot Mascot</title>
  <desc id="desc">Friendly white robot with a blue visor saying hi.</desc>
  <defs>
    <linearGradient id="bg" x1="0" y1="0" x2="0" y2="1">
      <stop offset="0%" stop-color="#0a1a3a" />
      <stop offset="100%" stop-color="#041024" />
    </linearGradient>
    <linearGradient id="accent" x1="0" y1="0" x2="1" y2="1">
      <stop offset="0%" stop-color="#00b0c8" />
      <stop offset="100%" stop-color="#00849b" />
    </linearGradient>
    <clipPath id="mask">
      <circle cx="64" cy="64" r="56" />
    </clipPath>
  </defs>
  <circle cx="64" cy="64" r="64" fill="url(#bg)" />
  <g clip-path="url(#mask)">
    <g transform="translate(16 20)">
      <rect x="24" y="-6" width="32" height="12" rx="6" fill="#fff" opacity="0.75" />
      <circle cx="48" cy="6" r="8" fill="url(#accent)" />
      <path d="M48 2v8" stroke="#fff" stroke-width="2" stroke-linecap="round" />
      <rect x="12" y="14" width="72" height="60" rx="30" fill="#ffffff" />
      <rect x="24" y="28" width="48" height="28" rx="14" fill="#061b38" />
      <rect x="28" y="32" width="40" height="20" rx="10" fill="url(#accent)" />
      <circle cx="40" cy="42" r="5" fill="#0a1a3a" />
      <circle cx="56" cy="42" r="5" fill="#0a1a3a" />
      <path d="M36 58c4 4 16 4 20 0" stroke="#00b0c8" stroke-width="4" stroke-linecap="round" />
      <path d="M12 58c0 16 12 30 36 30s36-14 36-30" fill="#f5f7fb" />
      <path d="M18 92c6 10 18 16 30 16s24-6 30-16" fill="#e3ebf7" />
    </g>
    <g transform="translate(84 16)">
      <path d="M0 0h32v24c0 8-6 14-14 14H6c-3.3 0-6-2.7-6-6V0z" fill="#00b0c8" opacity="0.9" />
      <path d="M6 10h20" stroke="#fff" stroke-width="4" stroke-linecap="round" />
    </g>
  </g>
</svg>
